<?xml version="1.0" standalone="no"?><!DOCTYPE svg PUBLIC "-//W3C//DTD SVG 1.1//EN" "http://www.w3.org/Graphics/SVG/1.1/DTD/svg11.dtd"><svg t="1772710294280" class="icon" viewBox="0 0 1024 1024" version="1.1" xmlns="http://www.w3.org/2000/svg" p-id="1974" width="48" height="48" xmlns:xlink="http://www.w3.org/1999/xlink"><path d="M131.78 989.162c-5.354 0-10.714-1.322-15.578-3.99a32.394 32.394 0 0 1-16.828-28.636l0.852-123.998h-6.368C42.104 832.536 0 790.432 0 738.674V128.7c0-51.758 42.104-93.862 93.858-93.862H930.14c51.756 0 93.86 42.106 93.86 93.862v609.974c0 51.758-42.104 93.862-93.858 93.862H562.772c-17.894 0-32.406-14.512-32.406-32.406s14.512-32.406 32.406-32.406H930.14c16.014 0 29.048-13.03 29.048-29.052V128.7c0-16.018-13.03-29.052-29.048-29.052H93.858c-16.014 0-29.048 13.03-29.048 29.052v609.974c0 16.018 13.03 29.052 29.048 29.052h38.996a32.408 32.408 0 0 1 32.404 32.626l-0.664 96.538 191.388-123.96c15.026-9.732 35.088-5.434 44.816 9.582 9.728 15.024 5.438 35.086-9.582 44.816L149.398 983.954a32.406 32.406 0 0 1-17.618 5.208z" fill="#2D527C" p-id="1975"></path><path d="M178.228 618.94V248.438c0-19.534 15.836-35.368 35.368-35.368h596.808c19.534 0 35.368 15.836 35.368 35.368V618.94c0 19.534-15.836 35.368-35.368 35.368H213.596c-19.534 0-35.368-15.834-35.368-35.368z" fill="#CEE8FA" p-id="1976"></path><path d="M810.404 686.714H213.596c-37.37 0-67.772-30.402-67.772-67.772V248.438c0-37.37 30.402-67.776 67.772-67.776h596.808c37.37 0 67.772 30.406 67.772 67.776V618.94c0 37.37-30.402 67.774-67.772 67.774z m-596.808-441.24c-1.634 0-2.962 1.328-2.962 2.966v370.5c0 1.634 1.328 2.962 2.962 2.962h596.808c1.634 0 2.962-1.328 2.962-2.962V248.438c0-1.636-1.328-2.966-2.962-2.966H213.596z" fill="#2D527C" p-id="1977"></path></svg>